<svg version="1.1" class="clearos-svg clearfoundation app-vendor-clearfoundation app-free app-category-server app-sub-category-file" viewBox="0 0 400 400" preserveAspectRatio="xMinYMin" xmlns="http://www.w3.org/2000/svg" xmlns:xlink= "http://www.w3.org/1999/xlink">
<path fill="#AA0707" d="M91.666,184.647"/>
<path fill="#AA0707" d="M123.245,247.805"/>
<path fill="#AA0707" d="M91.666,184.647"/>
<path fill="#AA0707" d="M123.245,247.805"/>
<g>
	<polygon fill="#686868" points="198.876,280.924 127.187,195.345 31.112,275.791 2.063,246.883 2.063,384.32 140.223,384.32 
		110.603,354.859 	"/>
	<path fill="#686868" d="M292.443,311.207l0.232-149.258l-149.979-0.243l42.38,42.21l8.556-7.13l-24.05-23.981l112.339,0.209
		l-0.185,111.752l-23.57-23.555l-78.257,65.297c0,0-30.854,25.955-34.788,28.873l11.349,11.543l104.464-87.143L292.443,311.207z"/>
	<path fill="#686868" d="M284.238,15.677H79.372v98.063h12.852V30.542h187.603v117.574h104.521v220.689H228.991v15.518h168.946
		V144.064L284.238,15.677z M291.838,135.559V45.229l79.926,90.328L291.838,135.559L291.838,135.559z"/>
</g>
</svg>
